# xmcd CD database file
#
# Track frame offsets:
#	150
#	14122
#	27325
#	40465
#	55737
#	70367
#	80945
#	93387
#	105879
#	117065
#	131347
#	146002
#	158225
#	169825
#	183182
#	194025
#	208877
#	222702
#	234070
#	244867
#
# Disc length: 3462 seconds
#
# Revision: 0
# Processed by: cddbd v1.5.1PL0 Copyright (c) Steve Scherf et al.
# Submitted via: CDex 1.51
#
DISCID=270d8414
DTITLE=Various Artist - Swingdansen verboden
DYEAR=2001
DGENRE=Jazz
TTITLE0=Zuiderzee Blues
TTITLE1=J cover the waterfront
TTITLE2=Honeysuckle Rose (Kamperfolie)
TTITLE3=Steeple Chase (Hindernisrennen)
TTITLE4=Zonnig Madeira
TTITLE5=Polydor rhythme
TTITLE6=Music
TTITLE7=Swing Mr. Charlie
TTITLE8=Lady be good (Kareltje in de bocht)
TTITLE9=J never dream
TTITLE10=Emotie
TTITLE11=Goody goody
TTITLE12=College Swing
TTITLE13=Liefde in rhythme
TTITLE14=Capucijners
TTITLE15=Episode
TTITLE16=Boogie Woogie (Bokkenwagen)
TTITLE17=Hello Kitty
TTITLE18=Copper colored gal
TTITLE19=Farewell Blues (Au revoir)
EXTD=YEAR: 2001
EXTT0=
EXTT1=
EXTT2=
EXTT3=
EXTT4=
EXTT5=
EXTT6=
EXTT7=
EXTT8=
EXTT9=
EXTT10=
EXTT11=
EXTT12=
EXTT13=
EXTT14=
EXTT15=
EXTT16=
EXTT17=
EXTT18=
EXTT19=
PLAYORDER=
